With: Jean-Claude Van Damme, Scott Adkins and Kevin Chapham

Twee huurmoordenaars, met elk hun eigen specialiteit, worden ingehuurd om een drugskartel omver te werpen. Brazil (Jean Claude Van Damme) en Flint (Scott Adkins) zullen ondanks hun rivaliteit moeten samenwerken om dit voor elkaar te kunnen krijgen

Rival assassins -- each of whom are masters of their respective weapons -- form an uneasy alliance in their mission to take down a DEA-backed drug cartel. 

------------------ Dutch Friends ------------------
You can find my Friends at: http://www.Film-Test.nl 
------ They got my dutchs subs ---- and more ------

General:

Complete name                    : Assassination Games\Assassination Games.avi
Format                           : AVI
Format/Info                      : Audio Video Interleave
File size                        : 1.43 GiB
Duration                         : 1h 39mn
Overall bit rate                 : 2 052 Kbps

Video:

Format                           : MPEG-4 Visual
Format profile                   : Simple@L3
Format settings, BVOP            : No
Format settings, QPel            : No
Format settings, GMC             : No warppoints
Format settings, Matrix          : Default (H.263)
Codec ID                         : XVID
Codec ID/Hint                    : XviD
Duration                         : 1h 39mn
Bit rate                         : 1 593 Kbps
Width                            : 652 pixels
Height                           : 352 pixels
Display aspect ratio             : 1.852
Frame rate                       : 23.976 fps
Color space                      : YUV
Chroma subsampling               : 4:2:0
Bit depth                        : 8 bits
Scan type                        : Progressive
Bits/(Pixel*Frame)               : 0.290
Stream size                      : 1.11 GiB (78%)
Writing library                  : XviD 1.1.2 (UTC 2006-11-01)

Audio:

Format                           : AC-3
Format/Info                      : Audio Coding 3
Mode extension                   : CM (complete main)
Codec ID                         : 2000
Duration                         : 1h 39mn
Bit rate mode                    : Constant
Bit rate                         : 448 Kbps
Channel(s)                       : 6 channels
Channel positions                : Front: L C R, Side: L R, LFE
Sampling rate                    : 48.0 KHz
Bit depth                        : 16 bits
Stream size                      : 320 MiB (22%)
Alignment                        : Aligned on interleaves
Interleave, duration             : 32 ms (0.77 video frame)
Interleave, preload duration     : 32 ms

